<svg xmlns="http://www.w3.org/2000/svg" xmlns:v="https://svgstorm.com"
viewBox = "0 0 194 243"
width="194"
height="243">
<g fill="None" fill-opacity="0.0" stroke="#000000" stroke-opacity="0.00" stroke-width="0.3"><path d="
M 0.00 146.00 
C 0.50 146.00 1.00 146.00 1.00 146.00
C 1.53 119.73 15.44 94.21 34.00 76.00
C 28.37 67.30 25.14 55.42 35.25 47.25 C 45.35 39.07 55.18 48.15 64.25 52.75 C 73.31 57.36 89.15 45.14 100.00 50.00
C 93.70 35.55 74.44 12.17 92.00 0.00
L 0.00 0.00
L 0.00 146.00 Z"/>
</g>
<g fill="None" fill-opacity="0.0" stroke="#FBFAFB" stroke-opacity="0.96" stroke-width="0.3"><path d="
M 1.00 146.00 
C 0.95 148.53 1.82 152.29 0.00 154.00
L 0.00 175.00
C 4.90 208.30 34.01 241.75 70.00 242.00
C 71.67 242.01 73.33 242.00 75.00 242.00
C 78.66 242.00 82.34 242.07 86.00 242.00
C 99.85 241.72 113.95 234.58 127.02 232.02 C 140.09 229.47 149.73 221.35 159.25 212.25 C 168.77 203.15 172.94 185.73 169.01 172.99 C 165.08 160.25 166.41 142.97 168.07 129.92 C 169.73 116.88 191.04 116.82 194.00 104.00
L 194.00 103.00
C 192.47 100.95 192.75 96.78 193.00 94.00
C 190.11 77.87 167.08 79.54 156.00 85.00
C 152.93 76.20 144.03 70.05 139.00 63.00
C 149.88 65.85 157.46 55.22 167.69 52.69 C 177.93 50.17 187.07 36.96 176.75 28.25 C 166.44 19.54 156.49 32.37 149.75 38.75 C 143.01 45.14 129.45 52.96 138.00 63.00
C 128.27 56.88 116.92 52.41 106.00 50.00
C 115.55 46.62 111.33 32.59 110.67 24.33 C 110.01 16.07 110.15 4.64 102.00 0.00
L 92.00 0.00
C 74.44 12.17 93.70 35.55 100.00 50.00
C 89.15 45.14 73.31 57.36 64.25 52.75 C 55.18 48.15 45.35 39.07 35.25 47.25 C 25.14 55.42 28.37 67.30 34.00 76.00
C 15.44 94.21 1.53 119.73 1.00 146.00
M 99.00 6.00 
C 106.19 8.07 101.74 21.58 104.00 27.00 C 106.26 32.42 106.15 46.66 101.08 39.92 C 96.01 33.18 98.39 26.51 94.02 20.98 C 89.66 15.44 89.98 3.40 99.00 6.00
M 171.00 32.00 
C 179.73 34.98 171.57 46.79 164.77 46.77 C 157.97 46.75 152.85 56.72 145.77 56.77 C 138.69 56.82 149.38 46.23 153.75 43.75 C 158.13 41.27 164.65 29.84 171.00 32.00
M 183.00 90.00 
C 198.04 99.91 177.04 110.33 169.77 116.77 C 162.50 123.21 150.41 139.36 153.34 150.68 C 156.26 162.00 166.63 176.97 163.02 190.02 C 159.42 203.08 152.77 211.25 141.30 218.30 C 129.84 225.35 113.93 230.22 100.33 227.67 C 86.73 225.12 77.53 218.30 68.00 209.00
C 76.31 207.09 82.30 198.63 81.00 190.00
C 90.61 193.91 102.20 185.22 102.00 175.00
C 120.68 178.15 129.70 154.10 117.00 142.00
C 110.10 133.76 102.16 126.48 94.25 118.75 C 86.33 111.02 79.92 102.74 70.75 96.25 C 61.58 89.75 57.42 79.16 45.77 75.23 C 34.12 71.30 32.03 50.47 46.00 51.00 C 59.97 51.54 64.61 63.09 75.23 68.77 C 85.85 74.45 89.61 83.67 99.25 90.75 C 108.88 97.83 111.95 107.08 122.08 113.92 C 132.21 120.76 141.44 105.76 148.75 98.75 C 156.06 91.74 172.48 83.07 183.00 90.00
M 148.00 92.00 
C 140.37 96.01 132.46 114.52 123.75 107.25 C 115.05 99.97 110.32 91.40 101.75 84.25 C 93.18 77.09 86.21 69.00 77.00 63.00
C 102.89 53.85 136.44 66.04 148.00 92.00
M 84.00 232.00 
C 80.46 232.43 76.45 232.33 73.00 232.00
C 40.64 232.00 12.88 202.84 10.07 170.93 C 7.27 139.01 18.71 102.10 44.00 81.00
C 50.84 87.01 59.27 92.33 65.00 100.00
C 54.57 100.91 47.66 113.47 52.00 123.00
C 40.28 122.31 31.36 137.05 38.00 147.00
C 18.73 145.13 16.59 168.38 29.25 176.75 C 41.90 185.13 46.32 197.50 56.75 207.25 C 67.18 217.00 77.21 227.42 91.00 231.00
C 89.55 232.96 86.20 231.56 84.00 232.00
M 70.00 105.00 
C 79.88 106.78 82.99 118.69 91.75 124.25 C 100.51 129.80 102.45 139.85 111.77 146.23 C 121.09 152.61 115.20 172.68 103.33 168.67 C 91.46 164.66 92.08 154.57 82.75 148.25 C 73.42 141.93 72.16 132.77 62.25 126.75 C 52.34 120.74 56.92 102.64 70.00 105.00
M 56.00 129.00 
C 64.61 131.61 67.29 141.50 75.25 146.75 C 83.20 152.01 84.71 159.55 92.75 166.25 C 100.79 172.95 91.64 190.07 81.33 184.67 C 71.02 179.27 71.62 172.18 63.75 165.25 C 55.88 158.31 52.54 154.63 44.75 147.25 C 36.96 139.87 43.54 125.22 56.00 129.00
M 37.00 152.00 
C 43.98 152.68 53.99 163.37 58.75 170.25 C 63.52 177.12 75.56 182.46 75.00 194.00 C 74.44 205.54 58.53 202.51 53.23 193.77 C 47.93 185.03 41.54 178.83 33.75 173.25 C 25.96 167.67 22.12 150.55 37.00 152.00 Z"/>
</g>
<g fill="None" fill-opacity="0.0" stroke="#000000" stroke-opacity="0.00" stroke-width="0.3"><path d="
M 193.00 94.00 
C 193.02 94.09 194.00 94.00 194.00 94.00
L 194.00 0.00
L 102.00 0.00
C 110.15 4.64 110.01 16.07 110.67 24.33 C 111.33 32.59 115.55 46.62 106.00 50.00
C 116.92 52.41 128.27 56.88 138.00 63.00
C 129.45 52.96 143.01 45.14 149.75 38.75 C 156.49 32.37 166.44 19.54 176.75 28.25 C 187.07 36.96 177.93 50.17 167.69 52.69 C 157.46 55.22 149.88 65.85 139.00 63.00
C 144.03 70.05 152.93 76.20 156.00 85.00
C 167.08 79.54 190.11 77.87 193.00 94.00
M 140.00 3.00 
C 150.99 6.33 148.57 23.25 142.23 29.23 C 135.89 35.21 137.10 53.16 124.97 52.97 C 112.85 52.79 119.00 33.49 120.78 24.78 C 122.56 16.07 124.54 -1.69 140.00 3.00 Z"/>
</g>
<g fill="None" fill-opacity="0.0" stroke="#FEFEFD" stroke-opacity="0.91" stroke-width="0.3"><path d="
M 140.00 3.00 
C 124.54 -1.69 122.56 16.07 120.78 24.78 C 119.00 33.49 112.85 52.79 124.97 52.97 C 137.10 53.16 135.89 35.21 142.23 29.23 C 148.57 23.25 150.99 6.33 140.00 3.00
M 126.00 46.00 
C 120.62 42.05 126.25 31.59 126.98 25.98 C 127.70 20.37 129.10 6.74 137.22 9.78 C 145.35 12.82 138.30 22.41 135.69 27.69 C 133.09 32.98 129.37 40.83 126.00 46.00 Z"/>
</g>
<g fill="None" fill-opacity="0.0" stroke="#D49F3F" stroke-opacity="1.00" stroke-width="0.3"><path d="
M 99.00 6.00 
C 89.98 3.40 89.66 15.44 94.02 20.98 C 98.39 26.51 96.01 33.18 101.08 39.92 C 106.15 46.66 106.26 32.42 104.00 27.00 C 101.74 21.58 106.19 8.07 99.00 6.00 Z"/>
</g>
<g fill="None" fill-opacity="0.0" stroke="#D49F40" stroke-opacity="1.00" stroke-width="0.3"><path d="
M 126.00 46.00 
C 129.37 40.83 133.09 32.98 135.69 27.69 C 138.30 22.41 145.35 12.82 137.22 9.78 C 129.10 6.74 127.70 20.37 126.98 25.98 C 126.25 31.59 120.62 42.05 126.00 46.00 Z"/>
</g>
<g fill="None" fill-opacity="0.0" stroke="#D39F3E" stroke-opacity="1.00" stroke-width="0.3"><path d="
M 171.00 32.00 
C 164.65 29.84 158.13 41.27 153.75 43.75 C 149.38 46.23 138.69 56.82 145.77 56.77 C 152.85 56.72 157.97 46.75 164.77 46.77 C 171.57 46.79 179.73 34.98 171.00 32.00 Z"/>
</g>
<g fill="None" fill-opacity="0.0" stroke="#34559B" stroke-opacity="1.00" stroke-width="0.3"><path d="
M 117.00 142.00 
C 121.24 142.00 125.45 132.81 129.25 130.25 C 133.04 127.68 137.70 121.62 141.75 118.75 C 145.79 115.87 151.35 110.67 155.68 108.68 C 160.01 106.69 166.61 101.02 170.23 99.23 C 173.85 97.44 184.92 92.81 183.00 90.00
C 172.48 83.07 156.06 91.74 148.75 98.75 C 141.44 105.76 132.21 120.76 122.08 113.92 C 111.95 107.08 108.88 97.83 99.25 90.75 C 89.61 83.67 85.85 74.45 75.23 68.77 C 64.61 63.09 59.97 51.54 46.00 51.00 C 32.03 50.47 34.12 71.30 45.77 75.23 C 57.42 79.16 61.58 89.75 70.75 96.25 C 79.92 102.74 86.33 111.02 94.25 118.75 C 102.16 126.48 110.10 133.76 117.00 142.00 Z"/>
</g>
<g fill="None" fill-opacity="0.0" stroke="#9B262A" stroke-opacity="1.00" stroke-width="0.3"><path d="
M 148.00 92.00 
C 136.44 66.04 102.89 53.85 77.00 63.00
C 86.21 69.00 93.18 77.09 101.75 84.25 C 110.32 91.40 115.05 99.97 123.75 107.25 C 132.46 114.52 140.37 96.01 148.00 92.00 Z"/>
</g>
<g fill="None" fill-opacity="0.0" stroke="#B7282D" stroke-opacity="1.00" stroke-width="0.3"><path d="
M 73.00 232.00 
C 76.66 232.00 80.34 232.07 84.00 232.00
C 86.20 231.56 89.55 232.96 91.00 231.00
C 77.21 227.42 67.18 217.00 56.75 207.25 C 46.32 197.50 41.90 185.13 29.25 176.75 C 16.59 168.38 18.73 145.13 38.00 147.00
C 31.36 137.05 40.28 122.31 52.00 123.00
C 47.66 113.47 54.57 100.91 65.00 100.00
C 59.27 92.33 50.84 87.01 44.00 81.00
C 18.71 102.10 7.27 139.01 10.07 170.93 C 12.88 202.84 40.64 232.00 73.00 232.00 Z"/>
</g>
<g fill="None" fill-opacity="0.0" stroke="#344793" stroke-opacity="1.00" stroke-width="0.3"><path d="
M 117.00 142.00 
C 129.70 154.10 120.68 178.15 102.00 175.00
C 102.20 185.22 90.61 193.91 81.00 190.00
C 82.30 198.63 76.31 207.09 68.00 209.00
C 77.53 218.30 86.73 225.12 100.33 227.67 C 113.93 230.22 129.84 225.35 141.30 218.30 C 152.77 211.25 159.42 203.08 163.02 190.02 C 166.63 176.97 156.26 162.00 153.34 150.68 C 150.41 139.36 162.50 123.21 169.77 116.77 C 177.04 110.33 198.04 99.91 183.00 90.00
C 184.92 92.81 173.85 97.44 170.23 99.23 C 166.61 101.02 160.01 106.69 155.68 108.68 C 151.35 110.67 145.79 115.87 141.75 118.75 C 137.70 121.62 133.04 127.68 129.25 130.25 C 125.45 132.81 121.24 142.00 117.00 142.00 Z"/>
</g>
<g fill="None" fill-opacity="0.0" stroke="#FFFFFF" stroke-opacity="0.56" stroke-width="0.3"><path d="
M 194.00 103.00 
L 194.00 94.00
C 194.00 94.00 193.02 94.09 193.00 94.00
C 192.75 96.78 192.47 100.95 194.00 103.00 Z"/>
</g>
<g fill="None" fill-opacity="0.0" stroke="#000000" stroke-opacity="0.00" stroke-width="0.3"><path d="
M 86.00 242.00 
C 86.01 242.00 86.00 243.00 86.00 243.00
L 194.00 243.00
L 194.00 104.00
C 191.04 116.82 169.73 116.88 168.07 129.92 C 166.41 142.97 165.08 160.25 169.01 172.99 C 172.94 185.73 168.77 203.15 159.25 212.25 C 149.73 221.35 140.09 229.47 127.02 232.02 C 113.95 234.58 99.85 241.72 86.00 242.00 Z"/>
</g>
<g fill="None" fill-opacity="0.0" stroke="#35549B" stroke-opacity="1.00" stroke-width="0.3"><path d="
M 70.00 105.00 
C 56.92 102.64 52.34 120.74 62.25 126.75 C 72.16 132.77 73.42 141.93 82.75 148.25 C 92.08 154.57 91.46 164.66 103.33 168.67 C 115.20 172.68 121.09 152.61 111.77 146.23 C 102.45 139.85 100.51 129.80 91.75 124.25 C 82.99 118.69 79.88 106.78 70.00 105.00 Z"/>
</g>
<g fill="None" fill-opacity="0.0" stroke="#34559B" stroke-opacity="1.00" stroke-width="0.3"><path d="
M 56.00 129.00 
C 43.54 125.22 36.96 139.87 44.75 147.25 C 52.54 154.63 55.88 158.31 63.75 165.25 C 71.62 172.18 71.02 179.27 81.33 184.67 C 91.64 190.07 100.79 172.95 92.75 166.25 C 84.71 159.55 83.20 152.01 75.25 146.75 C 67.29 141.50 64.61 131.61 56.00 129.00 Z"/>
</g>
<g fill="None" fill-opacity="0.0" stroke="#FFFFFF" stroke-opacity="0.57" stroke-width="0.3"><path d="
M 0.00 154.00 
C 1.82 152.29 0.95 148.53 1.00 146.00
C 1.00 146.00 0.50 146.00 0.00 146.00
L 0.00 154.00 Z"/>
</g>
<g fill="None" fill-opacity="0.0" stroke="#35569C" stroke-opacity="1.00" stroke-width="0.3"><path d="
M 37.00 152.00 
C 22.12 150.55 25.96 167.67 33.75 173.25 C 41.54 178.83 47.93 185.03 53.23 193.77 C 58.53 202.51 74.44 205.54 75.00 194.00 C 75.56 182.46 63.52 177.12 58.75 170.25 C 53.99 163.37 43.98 152.68 37.00 152.00 Z"/>
</g>
<g fill="None" fill-opacity="0.0" stroke="#000000" stroke-opacity="0.00" stroke-width="0.3"><path d="
M 0.00 243.00 
L 70.00 243.00
C 70.00 242.50 70.00 242.00 70.00 242.00
C 34.01 241.75 4.90 208.30 0.00 175.00
L 0.00 243.00 Z"/>
</g>
<g fill="None" fill-opacity="0.0" stroke="#D69294" stroke-opacity="1.00" stroke-width="0.3"><path d="
M 84.00 232.00 
C 80.34 232.07 76.66 232.00 73.00 232.00
C 76.45 232.33 80.46 232.43 84.00 232.00 Z"/>
</g>
<g fill="None" fill-opacity="0.0" stroke="#FFFFFF" stroke-opacity="0.21" stroke-width="0.3"><path d="
M 70.00 243.00 
L 75.00 243.00
C 75.00 242.50 75.00 242.00 75.00 242.00
C 73.33 242.00 71.67 242.01 70.00 242.00
C 70.00 242.00 70.00 242.50 70.00 243.00 Z"/>
</g>
<g fill="None" fill-opacity="0.0" stroke="#FFFFFF" stroke-opacity="0.40" stroke-width="0.3"><path d="
M 75.00 243.00 
L 86.00 243.00
C 86.00 243.00 86.01 242.00 86.00 242.00
C 82.34 242.07 78.66 242.00 75.00 242.00
C 75.00 242.00 75.00 242.50 75.00 243.00 Z"/>
</g>
<g fill="#000000" fill-opacity="0.00" stroke="None">
<path d="
M 0.00 146.00 
C 0.50 146.00 1.00 146.00 1.00 146.00
C 1.53 119.73 15.44 94.21 34.00 76.00
C 28.37 67.30 25.14 55.42 35.25 47.25 C 45.35 39.07 55.18 48.15 64.25 52.75 C 73.31 57.36 89.15 45.14 100.00 50.00
C 93.70 35.55 74.44 12.17 92.00 0.00
L 0.00 0.00
L 0.00 146.00 Z"/>
</g>
<g fill="#FBFAFB" fill-opacity="0.96" stroke="None">
<path d="
M 1.00 146.00 
C 0.95 148.53 1.82 152.29 0.00 154.00
L 0.00 175.00
C 4.90 208.30 34.01 241.75 70.00 242.00
C 71.67 242.01 73.33 242.00 75.00 242.00
C 78.66 242.00 82.34 242.07 86.00 242.00
C 99.85 241.72 113.95 234.58 127.02 232.02 C 140.09 229.47 149.73 221.35 159.25 212.25 C 168.77 203.15 172.94 185.73 169.01 172.99 C 165.08 160.25 166.41 142.97 168.07 129.92 C 169.73 116.88 191.04 116.82 194.00 104.00
L 194.00 103.00
C 192.47 100.95 192.75 96.78 193.00 94.00
C 190.11 77.87 167.08 79.54 156.00 85.00
C 152.93 76.20 144.03 70.05 139.00 63.00
C 149.88 65.85 157.46 55.22 167.69 52.69 C 177.93 50.17 187.07 36.96 176.75 28.25 C 166.44 19.54 156.49 32.37 149.75 38.75 C 143.01 45.14 129.45 52.96 138.00 63.00
C 128.27 56.88 116.92 52.41 106.00 50.00
C 115.55 46.62 111.33 32.59 110.67 24.33 C 110.01 16.07 110.15 4.64 102.00 0.00
L 92.00 0.00
C 74.44 12.17 93.70 35.55 100.00 50.00
C 89.15 45.14 73.31 57.36 64.25 52.75 C 55.18 48.15 45.35 39.07 35.25 47.25 C 25.14 55.42 28.37 67.30 34.00 76.00
C 15.44 94.21 1.53 119.73 1.00 146.00
M 99.00 6.00 
C 106.19 8.07 101.74 21.58 104.00 27.00 C 106.26 32.42 106.15 46.66 101.08 39.92 C 96.01 33.18 98.39 26.51 94.02 20.98 C 89.66 15.44 89.98 3.40 99.00 6.00
M 171.00 32.00 
C 179.73 34.98 171.57 46.79 164.77 46.77 C 157.97 46.75 152.85 56.72 145.77 56.77 C 138.69 56.82 149.38 46.23 153.75 43.75 C 158.13 41.27 164.65 29.84 171.00 32.00
M 183.00 90.00 
C 198.04 99.91 177.04 110.33 169.77 116.77 C 162.50 123.21 150.41 139.36 153.34 150.68 C 156.26 162.00 166.63 176.97 163.02 190.02 C 159.42 203.08 152.77 211.25 141.30 218.30 C 129.84 225.35 113.93 230.22 100.33 227.67 C 86.73 225.12 77.53 218.30 68.00 209.00
C 76.31 207.09 82.30 198.63 81.00 190.00
C 90.61 193.91 102.20 185.22 102.00 175.00
C 120.68 178.15 129.70 154.10 117.00 142.00
C 110.10 133.76 102.16 126.48 94.25 118.75 C 86.33 111.02 79.92 102.74 70.75 96.25 C 61.58 89.75 57.42 79.16 45.77 75.23 C 34.12 71.30 32.03 50.47 46.00 51.00 C 59.97 51.54 64.61 63.09 75.23 68.77 C 85.85 74.45 89.61 83.67 99.25 90.75 C 108.88 97.83 111.95 107.08 122.08 113.92 C 132.21 120.76 141.44 105.76 148.75 98.75 C 156.06 91.74 172.48 83.07 183.00 90.00
M 148.00 92.00 
C 140.37 96.01 132.46 114.52 123.75 107.25 C 115.05 99.97 110.32 91.40 101.75 84.25 C 93.18 77.09 86.21 69.00 77.00 63.00
C 102.89 53.85 136.44 66.04 148.00 92.00
M 84.00 232.00 
C 80.46 232.43 76.45 232.33 73.00 232.00
C 40.64 232.00 12.88 202.84 10.07 170.93 C 7.27 139.01 18.71 102.10 44.00 81.00
C 50.84 87.01 59.27 92.33 65.00 100.00
C 54.57 100.91 47.66 113.47 52.00 123.00
C 40.28 122.31 31.36 137.05 38.00 147.00
C 18.73 145.13 16.59 168.38 29.25 176.75 C 41.90 185.13 46.32 197.50 56.75 207.25 C 67.18 217.00 77.21 227.42 91.00 231.00
C 89.55 232.96 86.20 231.56 84.00 232.00
M 70.00 105.00 
C 79.88 106.78 82.99 118.69 91.75 124.25 C 100.51 129.80 102.45 139.85 111.77 146.23 C 121.09 152.61 115.20 172.68 103.33 168.67 C 91.46 164.66 92.08 154.57 82.75 148.25 C 73.42 141.93 72.16 132.77 62.25 126.75 C 52.34 120.74 56.92 102.64 70.00 105.00
M 56.00 129.00 
C 64.61 131.61 67.29 141.50 75.25 146.75 C 83.20 152.01 84.71 159.55 92.75 166.25 C 100.79 172.95 91.64 190.07 81.33 184.67 C 71.02 179.27 71.62 172.18 63.75 165.25 C 55.88 158.31 52.54 154.63 44.75 147.25 C 36.96 139.87 43.54 125.22 56.00 129.00
M 37.00 152.00 
C 43.98 152.68 53.99 163.37 58.75 170.25 C 63.52 177.12 75.56 182.46 75.00 194.00 C 74.44 205.54 58.53 202.51 53.23 193.77 C 47.93 185.03 41.54 178.83 33.75 173.25 C 25.96 167.67 22.12 150.55 37.00 152.00 Z"/>
</g>
<g fill="#000000" fill-opacity="0.00" stroke="None">
<path d="
M 193.00 94.00 
C 193.02 94.09 194.00 94.00 194.00 94.00
L 194.00 0.00
L 102.00 0.00
C 110.15 4.64 110.01 16.07 110.67 24.33 C 111.33 32.59 115.55 46.62 106.00 50.00
C 116.92 52.41 128.27 56.88 138.00 63.00
C 129.45 52.96 143.01 45.14 149.75 38.75 C 156.49 32.37 166.44 19.54 176.75 28.25 C 187.07 36.96 177.93 50.17 167.69 52.69 C 157.46 55.22 149.88 65.85 139.00 63.00
C 144.03 70.05 152.93 76.20 156.00 85.00
C 167.08 79.54 190.11 77.87 193.00 94.00
M 140.00 3.00 
C 150.99 6.33 148.57 23.25 142.23 29.23 C 135.89 35.21 137.10 53.16 124.97 52.97 C 112.85 52.79 119.00 33.49 120.78 24.78 C 122.56 16.07 124.54 -1.69 140.00 3.00 Z"/>
</g>
<g fill="#FEFEFD" fill-opacity="0.91" stroke="None">
<path d="
M 140.00 3.00 
C 124.54 -1.69 122.56 16.07 120.78 24.78 C 119.00 33.49 112.85 52.79 124.97 52.97 C 137.10 53.16 135.89 35.21 142.23 29.23 C 148.57 23.25 150.99 6.33 140.00 3.00
M 126.00 46.00 
C 120.62 42.05 126.25 31.59 126.98 25.98 C 127.70 20.37 129.10 6.74 137.22 9.78 C 145.35 12.82 138.30 22.41 135.69 27.69 C 133.09 32.98 129.37 40.83 126.00 46.00 Z"/>
</g>
<g fill="#D49F3F" fill-opacity="1.00" stroke="None">
<path d="
M 99.00 6.00 
C 89.98 3.40 89.66 15.44 94.02 20.98 C 98.39 26.51 96.01 33.18 101.08 39.92 C 106.15 46.66 106.26 32.42 104.00 27.00 C 101.74 21.58 106.19 8.07 99.00 6.00 Z"/>
</g>
<g fill="#D49F40" fill-opacity="1.00" stroke="None">
<path d="
M 126.00 46.00 
C 129.37 40.83 133.09 32.98 135.69 27.69 C 138.30 22.41 145.35 12.82 137.22 9.78 C 129.10 6.74 127.70 20.37 126.98 25.98 C 126.25 31.59 120.62 42.05 126.00 46.00 Z"/>
</g>
<g fill="#D39F3E" fill-opacity="1.00" stroke="None">
<path d="
M 171.00 32.00 
C 164.65 29.84 158.13 41.27 153.75 43.75 C 149.38 46.23 138.69 56.82 145.77 56.77 C 152.85 56.72 157.97 46.75 164.77 46.77 C 171.57 46.79 179.73 34.98 171.00 32.00 Z"/>
</g>
<g fill="#34559B" fill-opacity="1.00" stroke="None">
<path d="
M 117.00 142.00 
C 121.24 142.00 125.45 132.81 129.25 130.25 C 133.04 127.68 137.70 121.62 141.75 118.75 C 145.79 115.87 151.35 110.67 155.68 108.68 C 160.01 106.69 166.61 101.02 170.23 99.23 C 173.85 97.44 184.92 92.81 183.00 90.00
C 172.48 83.07 156.06 91.74 148.75 98.75 C 141.44 105.76 132.21 120.76 122.08 113.92 C 111.95 107.08 108.88 97.83 99.25 90.75 C 89.61 83.67 85.85 74.45 75.23 68.77 C 64.61 63.09 59.97 51.54 46.00 51.00 C 32.03 50.47 34.12 71.30 45.77 75.23 C 57.42 79.16 61.58 89.75 70.75 96.25 C 79.92 102.74 86.33 111.02 94.25 118.75 C 102.16 126.48 110.10 133.76 117.00 142.00 Z"/>
</g>
<g fill="#9B262A" fill-opacity="1.00" stroke="None">
<path d="
M 148.00 92.00 
C 136.44 66.04 102.89 53.85 77.00 63.00
C 86.21 69.00 93.18 77.09 101.75 84.25 C 110.32 91.40 115.05 99.97 123.75 107.25 C 132.46 114.52 140.37 96.01 148.00 92.00 Z"/>
</g>
<g fill="#B7282D" fill-opacity="1.00" stroke="None">
<path d="
M 73.00 232.00 
C 76.66 232.00 80.34 232.07 84.00 232.00
C 86.20 231.56 89.55 232.96 91.00 231.00
C 77.21 227.42 67.18 217.00 56.75 207.25 C 46.32 197.50 41.90 185.13 29.25 176.75 C 16.59 168.38 18.73 145.13 38.00 147.00
C 31.36 137.05 40.28 122.31 52.00 123.00
C 47.66 113.47 54.57 100.91 65.00 100.00
C 59.27 92.33 50.84 87.01 44.00 81.00
C 18.71 102.10 7.27 139.01 10.07 170.93 C 12.88 202.84 40.64 232.00 73.00 232.00 Z"/>
</g>
<g fill="#344793" fill-opacity="1.00" stroke="None">
<path d="
M 117.00 142.00 
C 129.70 154.10 120.68 178.15 102.00 175.00
C 102.20 185.22 90.61 193.91 81.00 190.00
C 82.30 198.63 76.31 207.09 68.00 209.00
C 77.53 218.30 86.73 225.12 100.33 227.67 C 113.93 230.22 129.84 225.35 141.30 218.30 C 152.77 211.25 159.42 203.08 163.02 190.02 C 166.63 176.97 156.26 162.00 153.34 150.68 C 150.41 139.36 162.50 123.21 169.77 116.77 C 177.04 110.33 198.04 99.91 183.00 90.00
C 184.92 92.81 173.85 97.44 170.23 99.23 C 166.61 101.02 160.01 106.69 155.68 108.68 C 151.35 110.67 145.79 115.87 141.75 118.75 C 137.70 121.62 133.04 127.68 129.25 130.25 C 125.45 132.81 121.24 142.00 117.00 142.00 Z"/>
</g>
<g fill="#FFFFFF" fill-opacity="0.56" stroke="None">
<path d="
M 194.00 103.00 
L 194.00 94.00
C 194.00 94.00 193.02 94.09 193.00 94.00
C 192.75 96.78 192.47 100.95 194.00 103.00 Z"/>
</g>
<g fill="#000000" fill-opacity="0.00" stroke="None">
<path d="
M 86.00 242.00 
C 86.01 242.00 86.00 243.00 86.00 243.00
L 194.00 243.00
L 194.00 104.00
C 191.04 116.82 169.73 116.88 168.07 129.92 C 166.41 142.97 165.08 160.25 169.01 172.99 C 172.94 185.73 168.77 203.15 159.25 212.25 C 149.73 221.35 140.09 229.47 127.02 232.02 C 113.95 234.58 99.85 241.72 86.00 242.00 Z"/>
</g>
<g fill="#35549B" fill-opacity="1.00" stroke="None">
<path d="
M 70.00 105.00 
C 56.92 102.64 52.34 120.74 62.25 126.75 C 72.16 132.77 73.42 141.93 82.75 148.25 C 92.08 154.57 91.46 164.66 103.33 168.67 C 115.20 172.68 121.09 152.61 111.77 146.23 C 102.45 139.85 100.51 129.80 91.75 124.25 C 82.99 118.69 79.88 106.78 70.00 105.00 Z"/>
</g>
<g fill="#34559B" fill-opacity="1.00" stroke="None">
<path d="
M 56.00 129.00 
C 43.54 125.22 36.96 139.87 44.75 147.25 C 52.54 154.63 55.88 158.31 63.75 165.25 C 71.62 172.18 71.02 179.27 81.33 184.67 C 91.64 190.07 100.79 172.95 92.75 166.25 C 84.71 159.55 83.20 152.01 75.25 146.75 C 67.29 141.50 64.61 131.61 56.00 129.00 Z"/>
</g>
<g fill="#FFFFFF" fill-opacity="0.57" stroke="None">
<path d="
M 0.00 154.00 
C 1.82 152.29 0.95 148.53 1.00 146.00
C 1.00 146.00 0.50 146.00 0.00 146.00
L 0.00 154.00 Z"/>
</g>
<g fill="#35569C" fill-opacity="1.00" stroke="None">
<path d="
M 37.00 152.00 
C 22.12 150.55 25.96 167.67 33.75 173.25 C 41.54 178.83 47.93 185.03 53.23 193.77 C 58.53 202.51 74.44 205.54 75.00 194.00 C 75.56 182.46 63.52 177.12 58.75 170.25 C 53.99 163.37 43.98 152.68 37.00 152.00 Z"/>
</g>
<g fill="#000000" fill-opacity="0.00" stroke="None">
<path d="
M 0.00 243.00 
L 70.00 243.00
C 70.00 242.50 70.00 242.00 70.00 242.00
C 34.01 241.75 4.90 208.30 0.00 175.00
L 0.00 243.00 Z"/>
</g>
<g fill="#D69294" fill-opacity="1.00" stroke="None">
<path d="
M 84.00 232.00 
C 80.34 232.07 76.66 232.00 73.00 232.00
C 76.45 232.33 80.46 232.43 84.00 232.00 Z"/>
</g>
<g fill="#FFFFFF" fill-opacity="0.21" stroke="None">
<path d="
M 70.00 243.00 
L 75.00 243.00
C 75.00 242.50 75.00 242.00 75.00 242.00
C 73.33 242.00 71.67 242.01 70.00 242.00
C 70.00 242.00 70.00 242.50 70.00 243.00 Z"/>
</g>
<g fill="#FFFFFF" fill-opacity="0.40" stroke="None">
<path d="
M 75.00 243.00 
L 86.00 243.00
C 86.00 243.00 86.01 242.00 86.00 242.00
C 82.34 242.07 78.66 242.00 75.00 242.00
C 75.00 242.00 75.00 242.50 75.00 243.00 Z"/>
</g>
</svg>